HIERARCHY
ROOT Hips
{
	OFFSET 0.00000 0.00000 0.00000
	CHANNELS 6 Xposition Yposition Zposition Zrotation Yrotation Xrotation 
	JOINT LHipJoint
	{
		OFFSET 0 0 0
		CHANNELS 3 Zrotation Yrotation Xrotation
		JOINT LeftHip
		{
			OFFSET 1.37590 -1.78394 0.89329
			CHANNELS 3 Zrotation Yrotation Xrotation
			JOINT LeftKnee
			{
				OFFSET 2.47928 -6.81178 0.00000
				CHANNELS 3 Zrotation Yrotation Xrotation
				JOINT LeftAnkle
				{
					OFFSET 2.63345 -7.23535 0.00000
					CHANNELS 3 Zrotation Yrotation Xrotation
					JOINT LeftToe
					{
						OFFSET 0.23938 -0.65768 2.27012
						CHANNELS 3 Zrotation Yrotation Xrotation
						End Site
						{
							OFFSET 0.00000 -0.00000 1.18363
						}
					}
				}
			}
		}
	}
	JOINT RHipJoint
	{
		OFFSET 0 0 0
		CHANNELS 3 Zrotation Yrotation Xrotation
		JOINT RightHip
		{
			OFFSET -1.33617 -1.78394 0.89329
			CHANNELS 3 Zrotation Yrotation Xrotation
			JOINT RightKnee
			{
				OFFSET -2.56922 -7.05888 0.00000
				CHANNELS 3 Zrotation Yrotation Xrotation
				JOINT RightAnkle
				{
					OFFSET -2.56568 -7.04915 0.00000
					CHANNELS 3 Zrotation Yrotation Xrotation
					JOINT RightToe
					{
						OFFSET -0.27533 -0.75646 2.18105
						CHANNELS 3 Zrotation Yrotation Xrotation
						End Site
						{
							OFFSET -0.00000 -0.00000 1.15233
						}
					}
				}
			}
		}
	}
	JOINT lowerback
	{
		OFFSET 0 0 0
		CHANNELS 3 Zrotation Yrotation Xrotation
		JOINT Chest
		{
			OFFSET 0.06190 2.15152 -0.00935
			CHANNELS 3 Zrotation Yrotation Xrotation
			JOINT Chest2
			{
				OFFSET 0.06334 2.15332 0.00872
				CHANNELS 3 Zrotation Yrotation Xrotation
				JOINT lowerneck
				{
					OFFSET 0 0 0
					CHANNELS 3 Zrotation Yrotation Xrotation
					JOINT Neck
					{
						OFFSET -0.04202 1.66908 0.23524
						CHANNELS 3 Zrotation Yrotation Xrotation
						JOINT Head
						{
							OFFSET 0.07510 1.69357 -0.24440
							CHANNELS 3 Zrotation Yrotation Xrotation
							End Site
							{
								OFFSET 0.02556 1.71719 -0.11000
							}
						}
					}
				}
				JOINT LeftCollar
				{
					OFFSET 0 0 0
					CHANNELS 3 Zrotation Yrotation Xrotation
					JOINT LeftShoulder
					{
						OFFSET 3.67168 1.26306 -0.41342
CHANNELS 3 Zrotation Xrotation Yrotation
						JOINT LeftElbow
						{
OFFSET 0 -4.685100 -0.000000
CHANNELS 3 Zrotation Xrotation Yrotation
							JOINT LeftWrist
							{
OFFSET 0 -3.396260 -0.000000
CHANNELS 3 Zrotation Xrotation Yrotation
								JOINT lhand
								{
									OFFSET 0 0 0
CHANNELS 3 Zrotation Xrotation Yrotation
									JOINT LFingers
									{
OFFSET 0 -0.486080 -0.000000
CHANNELS 3 Zrotation Xrotation Yrotation
										End Site
										{
OFFSET 0 -0.391890 -0.000000
										}
									}
								}
								JOINT LThumb
								{
OFFSET 0 0.000000 0.000000
CHANNELS 3 Zrotation Xrotation Yrotation
									End Site
									{
OFFSET 0 -0.397870 0.397870
									}
								}
							}
						}
					}
				}
				JOINT RightCollar
				{
					OFFSET 0 0 0
					CHANNELS 3 Zrotation Yrotation Xrotation
					JOINT RightShoulder
					{
						OFFSET -3.04136 1.42992 -0.76390
CHANNELS 3 Zrotation Xrotation Yrotation
						JOINT RightElbow
						{
OFFSET 0 -5.555760 -0.000000
CHANNELS 3 Zrotation Xrotation Yrotation
							JOINT RightWrist
							{
OFFSET 0 -3.327740 -0.000000
CHANNELS 3 Zrotation Xrotation Yrotation
								JOINT rhand
								{
									OFFSET 0 0 0
CHANNELS 3 Zrotation Xrotation Yrotation
									JOINT RFingers
									{
OFFSET 0 -0.507630 -0.000000
CHANNELS 3 Zrotation Xrotation Yrotation
										End Site
										{
OFFSET 0 -0.409260 -0.000000
										}
									}
								}
								JOINT RThumb
								{
OFFSET 0 0.000000 0.000000
CHANNELS 3 Zrotation Xrotation Yrotation
									End Site
									{
OFFSET 0 -0.415510 0.415510
									}
								}
							}
						}
					}
				}
			}
		}
	}
}
MOTION
Frames: 5
Frame Time: .0083333
-6.6074 17.9133 7.3031 -163.9000 -75.9128 169.4510 0.0000 0.0000 0.0000 -16.0326 -10.1395 -16.8323 1.0758 6.5931 18.5152 0.0434 -0.4781 -3.7937 0.0002 0.0799 0.2195 0.0000 0.0000 0.0000 23.1954 0.0926 -14.4395 -8.1056 -16.1964 52.9423 -0.0953 -0.8396 5.5934 -0.1464 -2.4657 6.7945 1.3712 1.7427 -1.7769 1.4369 2.2825 -3.1199 0.7031 1.1014 -2.2095 -15.3392 -11.9598 -10.1478 11.2108 -15.3112 9.3121 4.4381 -7.3375 6.5364 -0.0000 0.0000 0.0000 6.0676 5.8899 2.7255 14.1821 -22.9945 2.8989 12.6446 30.0458 -20.7433 0.0 0.0 0.0 -7.1250 0.0 0.0 -15.8706 50.5106 2.2034 -0.0000 0.0000 0.0000 -5.0264 -2.5759 15.383 -21.5721 -32.49 -6.3544 -31.6552 50.8637 43.7341 0.0 0.0 0.0 7.1250 0.0 -0.0 14.1917 77.9985 -10.9677
-6.7467 17.9237 7.2779 -164.7660 -75.9696 170.2010 0.0000 0.0000 0.0000 -16.4762 -9.9654 -16.1296 1.0601 6.5463 18.3781 0.0496 -0.5854 -4.0370 0.0007 0.1747 0.4800 0.0000 0.0000 0.0000 22.6212 0.1204 -15.3732 -8.3870 -16.3966 53.9449 -0.0901 -1.7369 5.3333 -0.1245 -2.2746 6.2652 1.1949 1.5965 -1.7112 1.4944 2.0910 -3.0477 0.8599 1.0115 -2.1799 -15.1902 -11.8361 -10.2710 11.0504 -15.1232 9.3423 4.3863 -7.2469 6.5163 0.0000 -0.0000 0.0000 5.7465 5.9228 3.1594 13.8574 -22.5304 2.7732 12.4722 30.6842 -20.7298 0.0 0.0 0.0 -7.1250 0.0 0.0 -16.0290 50.4702 2.2102 0.0000 -0.0000 0.0000 -4.2852 -1.2843 14.7803 -19.8932 -30.5134 -5.477 -29.1685 48.0246 42.7223 0.0 0.0 0.0 7.1250 0.0 -0.0 16.0820 76.1187 -11.8166
-6.8842 17.9343 7.2525 -165.5940 -76.0229 170.9230 0.0000 0.0000 0.0000 -16.8984 -9.7812 -15.4295 1.0424 6.4932 18.2223 0.0567 -0.6955 -4.3029 0.0015 0.2507 0.6887 0.0000 0.0000 0.0000 22.0639 0.1614 -16.3163 -8.6460 -16.5745 54.8577 -0.0773 -2.6421 4.9965 -0.1055 -2.0941 5.7658 1.0296 1.4461 -1.6406 1.5577 1.8940 -2.9766 1.0167 0.9182 -2.1524 -15.0327 -11.7089 -10.4010 10.8884 -14.9305 9.3676 4.3331 -7.1538 6.4950 -0.0000 0.0000 0.0000 5.4291 5.9571 3.5666 13.5383 -22.0709 2.6522 12.2888 31.3214 -20.7171 0.0 0.0 0.0 -7.1250 0.0 0.0 -16.1979 50.4291 2.218 -0.0000 0.0000 0.0000 -3.6031 -0.0307 14.0185 -18.3698 -28.6281 -4.7251 -26.785 45.3882 41.5996 0.0 0.0 0.0 7.1250 0.0 -0.0 17.4811 74.2166 -12.1576
-7.0204 17.9448 7.2270 -166.3990 -76.0740 171.6280 0.0000 0.0000 0.0000 -17.3068 -9.5880 -14.7283 1.0226 6.4331 18.0464 0.0646 -0.8085 -4.5809 0.0024 0.3171 0.8712 0.0000 0.0000 0.0000 21.5182 0.2095 -17.2613 -8.8784 -16.7288 55.6687 -0.0569 -3.5510 4.5889 -0.0897 -1.9311 5.3154 0.8735 1.2920 -1.5679 1.6251 1.6915 -2.9047 1.1728 0.8220 -2.1235 -14.8668 -11.5785 -10.5404 10.7255 -14.7334 9.3882 4.2783 -7.0581 6.4731 0.0000 0.0000 0.0000 5.1156 5.9916 3.9419 13.2267 -21.6185 2.5362 12.0993 31.9526 -20.6978 0.0 0.0 0.0 -7.1250 0.0 0.0 -16.3697 50.3805 2.2227 0.0000 0.0000 0.0000 -2.9765 1.1839 13.0894 -16.9897 -26.8442 -4.0827 -24.5479 43.0186 40.4037 0.0 0.0 0.0 7.1250 0.0 -0.0 18.5438 72.3392 -12.163
-7.1550 17.9551 7.2015 -167.1700 -76.1210 172.3060 0.0000 0.0000 0.0000 -17.6959 -9.3879 -14.0290 1.0009 6.3666 17.8519 0.0732 -0.9187 -4.8693 0.0033 0.3719 1.0219 0.0000 0.0000 0.0000 20.9886 0.2668 -18.2049 -9.0809 -16.8595 56.3694 -0.0291 -4.4649 4.1152 -0.0773 -1.7936 4.9356 0.7290 1.1351 -1.4925 1.6971 1.4853 -2.8334 1.3275 0.7235 -2.0950 -14.6938 -11.4453 -10.6846 10.5632 -14.5328 9.4012 4.2229 -6.9603 6.4494 -0.0000 0.0000 0.0000 4.8069 6.0287 4.278 12.9253 -21.1777 2.4262 11.9015 32.5703 -20.6758 0.0 0.0 0.0 -7.1250 0.0 0.0 -16.5479 50.3283 2.2264 -0.0000 0.0000 0.0000 -2.4025 2.3626 11.9852 -15.7420 -25.1696 -3.5355 -22.4747 40.9577 39.1694 0.0 0.0 0.0 7.1250 0.0 -0.0 19.3782 70.5172 -11.9519
